<?xml version="1.0" encoding="UTF-8"?>
<svg id="Capa_1" xmlns="http://www.w3.org/2000/svg" viewBox="0 0 80 80">
  <defs>
    <style>
      .cls-1 {
        fill: #fff;
      }
    </style>
  </defs>
  <path class="cls-1" d="M51.06,69H6.36c-2.14,0-3.87-1.74-3.87-3.88v-26.04c0-2.13,1.74-3.87,3.87-3.87h37.98c.34,0,.62.28.62.62s-.28.62-.62.62H6.36c-1.46,0-2.64,1.18-2.64,2.63v26.04c0,1.46,1.18,2.64,2.64,2.64h44.69c.34,0,.62.28.62.62s-.28.62-.62.62Z"/>
  <path class="cls-1" d="M73.64,69h-26.04c-2.14,0-3.87-1.74-3.87-3.88V14.87c0-2.13,1.74-3.87,3.87-3.87h26.04c2.13,0,3.87,1.73,3.87,3.87v50.25c0,2.14-1.74,3.88-3.87,3.88ZM47.6,12.23c-1.46,0-2.64,1.18-2.64,2.63v50.25c0,1.46,1.18,2.64,2.64,2.64h26.04c1.45,0,2.64-1.19,2.64-2.64V14.87c0-1.45-1.18-2.63-2.64-2.63h-26.04Z"/>
  <path class="cls-1" d="M60.62,65.85c-1.55,0-2.82-1.26-2.82-2.82s1.26-2.83,2.82-2.83,2.82,1.27,2.82,2.83-1.27,2.82-2.82,2.82ZM60.62,61.44c-.87,0-1.58.71-1.58,1.59s.71,1.59,1.58,1.59,1.59-.71,1.59-1.59-.71-1.59-1.59-1.59Z"/>
  <path class="cls-1" d="M73.97,58.12h-26.7c-.34,0-.62-.28-.62-.62V19.37c0-.34.28-.62.62-.62h26.7c.34,0,.62.28.62.62v38.14c0,.34-.28.62-.62.62ZM47.89,56.89h25.46V19.98h-25.46v36.91Z"/>
  <path class="cls-1" d="M65.26,16.41h-1.79c-.34,0-.62-.28-.62-.62s.28-.62.62-.62h1.79c.34,0,.62.28.62.62s-.28.62-.62.62ZM62.18,16.41h-6.2c-.34,0-.62-.28-.62-.62s.28-.62.62-.62h6.2c.34,0,.62.28.62.62s-.28.62-.62.62Z"/>
  <path class="cls-1" d="M44.34,66.07H10.85c-.34,0-.62-.28-.62-.62v-26.69c0-.34.28-.62.62-.62h33.49c.34,0,.62.28.62.62v26.69c0,.34-.28.62-.62.62ZM11.47,64.84h32.25v-25.46H11.47v25.46Z"/>
  <path class="cls-1" d="M7.28,57.37c-.34,0-.62-.28-.62-.62v-6.21c0-.34.28-.62.62-.62s.62.28.62.62v6.21c0,.34-.28.62-.62.62ZM7.28,49.87c-.34,0-.62-.28-.62-.62v-1.79c0-.34.28-.62.62-.62s.62.28.62.62v1.79c0,.34-.28.62-.62.62Z"/>
  <path class="cls-1" d="M70.8,26.75h-14.59c-.34,0-.62-.28-.62-.62s.28-.62.62-.62h14.59c.34,0,.62.28.62.62s-.28.62-.62.62ZM52.98,26.75h-2.54c-.34,0-.62-.28-.62-.62s.28-.62.62-.62h2.54c.34,0,.62.28.62.62s-.28.62-.62.62Z"/>
  <path class="cls-1" d="M54.6,28.36c-1.23,0-2.23-1-2.23-2.23s1-2.22,2.23-2.22,2.23,1,2.23,2.22-1,2.23-2.23,2.23ZM54.6,25.14c-.55,0-1,.44-1,.99s.45,1,1,1,.99-.45.99-1-.45-.99-.99-.99Z"/>
  <path class="cls-1" d="M70.8,33.29h-8.57c-.34,0-.62-.28-.62-.62s.28-.62.62-.62h8.57c.34,0,.62.28.62.62s-.28.62-.62.62ZM59.01,33.29h-8.57c-.34,0-.62-.28-.62-.62s.28-.62.62-.62h8.57c.34,0,.62.28.62.62s-.28.62-.62.62Z"/>
  <path class="cls-1" d="M60.62,34.9c-1.23,0-2.23-1-2.23-2.23s1-2.22,2.23-2.22,2.23,1,2.23,2.22-1,2.23-2.23,2.23ZM60.62,31.68c-.55,0-.99.45-.99.99s.45,1,.99,1,1-.45,1-1-.45-.99-1-.99Z"/>
  <path class="cls-1" d="M60.62,55.2c-5.26,0-9.54-4.28-9.54-9.54s4.28-9.53,9.54-9.53,9.54,4.28,9.54,9.53-4.28,9.54-9.54,9.54ZM60.62,37.35c-4.58,0-8.3,3.72-8.3,8.3s3.72,8.31,8.3,8.31,8.31-3.73,8.31-8.31-3.73-8.3-8.31-8.3Z"/>
  <path class="cls-1" d="M60.62,55.2c-2.91,0-5.18-4.19-5.18-9.54s2.28-9.53,5.18-9.53,5.19,4.19,5.19,9.53-2.28,9.54-5.19,9.54ZM60.62,37.35c-2.14,0-3.95,3.8-3.95,8.3s1.81,8.31,3.95,8.31,3.96-3.81,3.96-8.31-1.81-8.3-3.96-8.3Z"/>
  <path class="cls-1" d="M69.54,46.27h-17.85c-.34,0-.62-.28-.62-.62s.28-.62.62-.62h17.85c.34,0,.62.28.62.62s-.28.62-.62.62Z"/>
  <path class="cls-1" d="M60.62,55.2c-.34,0-.62-.28-.62-.62v-17.85c0-.34.28-.62.62-.62s.62.28.62.62v17.85c0,.34-.28.62-.62.62Z"/>
  <path class="cls-1" d="M60.65,42.26c-2.48,0-4.97-.42-7.46-1.25-.32-.11-.5-.46-.39-.78.11-.32.46-.5.78-.39,4.71,1.58,9.45,1.58,14.07,0,.33-.11.67.06.78.38.11.32-.06.67-.38.78-2.45.83-4.92,1.25-7.4,1.25Z"/>
  <path class="cls-1" d="M53.38,51.31c-.26,0-.5-.16-.58-.42-.11-.32.07-.67.39-.78,4.97-1.66,9.97-1.66,14.86,0,.32.11.49.46.39.78-.11.32-.46.5-.78.39-4.63-1.57-9.37-1.57-14.08,0-.06.02-.13.03-.2.03Z"/>
</svg>