<?xml version="1.0" encoding="UTF-8"?>
<svg xmlns="http://www.w3.org/2000/svg" xmlns:xlink="http://www.w3.org/1999/xlink" viewBox="0 0 465 200">
  <defs>
    <style>
      .cls-1 {
        fill: #999;
        opacity: .15;
      }

      .cls-2 {
        fill: #fff;
      }

      .cls-3 {
        fill: url(#Degradado_sin_nombre_16);
        mix-blend-mode: multiply;
        opacity: .14;
      }

      .cls-4 {
        isolation: isolate;
      }

      .cls-5 {
        fill: url(#Degradado_sin_nombre_13);
      }
    </style>
    <radialGradient id="Degradado_sin_nombre_16" data-name="Degradado sin nombre 16" cx="59.66" cy="172.88" fx="59.66" fy="172.88" r="48.37" gradientTransform="translate(12.46 144.53) rotate(.47) scale(1.09 .11) skewX(-.49)" gradientUnits="userSpaceOnUse">
      <stop offset=".11" stop-color="#000"/>
      <stop offset="1" stop-color="#000" stop-opacity="0"/>
    </radialGradient>
    <linearGradient id="Degradado_sin_nombre_13" data-name="Degradado sin nombre 13" x1="3.96" y1="126.03" x2="118.54" y2="82.67" gradientUnits="userSpaceOnUse">
      <stop offset="0" stop-color="#281e5d"/>
      <stop offset=".1" stop-color="#351d5c"/>
      <stop offset=".3" stop-color="#581a5a"/>
      <stop offset=".56" stop-color="#901758"/>
      <stop offset=".87" stop-color="#de1254"/>
      <stop offset="1" stop-color="#ff1053"/>
    </linearGradient>
  </defs>
  <g class="cls-4">
    <g id="Capa_1">
      <g>
        <path class="cls-1" d="M141.92,98.91c0,36.61-29.68,66.29-66.29,66.29S9.33,135.52,9.33,98.91,39.01,32.62,75.63,32.62s66.29,29.68,66.29,66.29ZM75.63,64.14c-19.21,0-34.78,15.57-34.78,34.78s15.57,34.78,34.78,34.78,34.78-15.57,34.78-34.78-15.57-34.78-34.78-34.78ZM116.43,34.9c-7.86,0-14.23,6.37-14.23,14.23s6.37,14.23,14.23,14.23,14.23-6.37,14.23-14.23-6.37-14.23-14.23-14.23Z"/>
        <ellipse class="cls-3" cx="75.63" cy="163.62" rx="53.25" ry="3.75"/>
        <path class="cls-5" d="M140.3,98.91c0,35.72-28.95,64.67-64.67,64.67S10.95,134.63,10.95,98.91,39.91,34.24,75.63,34.24s64.67,28.95,64.67,64.67ZM75.63,61.96c-20.41,0-36.95,16.54-36.95,36.95s16.54,36.95,36.95,36.95,36.95-16.54,36.95-36.95-16.54-36.95-36.95-36.95ZM116.43,34.9c-7.86,0-14.23,6.37-14.23,14.23s6.37,14.23,14.23,14.23,14.23-6.37,14.23-14.23-6.37-14.23-14.23-14.23Z"/>
      </g>
      <g>
        <path class="cls-2" d="M155.23,131.09V62.02h13.25v59.34l6.04,9.73h-19.29Z"/>
        <path class="cls-2" d="M190.72,71.54c-2.55,0-4.54-.62-5.97-1.87-1.43-1.24-2.15-3.02-2.15-5.32,0-2.11.73-3.84,2.19-5.18,1.46-1.34,3.47-2.01,6.02-2.01s4.45.64,5.88,1.91c1.43,1.28,2.15,3.03,2.15,5.27s-.72,3.92-2.15,5.23c-1.43,1.31-3.42,1.96-5.97,1.96ZM184.19,131.09v-49.38h13.25v49.38h-13.25Z"/>
        <path class="cls-2" d="M208.61,131.09v-49.38h12.79l.37,10.08-2.61,1.12c.62-2.24,1.83-4.28,3.64-6.11,1.8-1.83,3.95-3.31,6.44-4.43,2.49-1.12,5.07-1.68,7.75-1.68,3.73,0,6.86.75,9.38,2.24,2.52,1.49,4.42,3.75,5.69,6.77,1.27,3.02,1.91,6.77,1.91,11.25v30.15h-13.25v-29.22c0-2.24-.31-4.11-.93-5.6-.62-1.49-1.56-2.58-2.8-3.27-1.25-.68-2.83-.99-4.76-.93-1.49,0-2.86.23-4.11.7-1.25.47-2.35,1.14-3.31,2.01-.97.87-1.7,1.87-2.19,2.99-.5,1.12-.75,2.37-.75,3.73v29.59h-13.25Z"/>
        <path class="cls-2" d="M281.89,132.03c-4.29,0-8.17-1.09-11.62-3.27-3.45-2.18-6.16-5.21-8.12-9.1-1.96-3.89-2.94-8.29-2.94-13.21s.98-9.4,2.94-13.25c1.96-3.86,4.65-6.91,8.07-9.15,3.42-2.24,7.31-3.36,11.67-3.36,2.3,0,4.53.36,6.67,1.07,2.15.72,4.06,1.7,5.74,2.94,1.68,1.25,3.05,2.63,4.11,4.15,1.06,1.53,1.68,3.1,1.87,4.71l-3.36.65v-32.2h13.16v69.07h-12.51l-.56-11.39,2.61.37c-.06,1.49-.59,2.96-1.59,4.39-1,1.43-2.32,2.72-3.97,3.87-1.65,1.15-3.52,2.05-5.6,2.71-2.09.65-4.28.98-6.58.98ZM284.78,121.01c2.55,0,4.74-.62,6.58-1.87,1.83-1.24,3.28-2.96,4.34-5.13,1.06-2.18,1.59-4.7,1.59-7.56s-.53-5.49-1.59-7.7c-1.06-2.21-2.51-3.92-4.34-5.13-1.84-1.21-4.03-1.82-6.58-1.82s-4.57.61-6.44,1.82c-1.87,1.21-3.31,2.93-4.34,5.13-1.03,2.21-1.54,4.78-1.54,7.7s.51,5.38,1.54,7.56c1.03,2.18,2.47,3.89,4.34,5.13,1.87,1.25,4.01,1.87,6.44,1.87Z"/>
        <path class="cls-2" d="M328.5,71.54c-2.55,0-4.54-.62-5.97-1.87-1.43-1.24-2.15-3.02-2.15-5.32,0-2.11.73-3.84,2.19-5.18,1.46-1.34,3.47-2.01,6.02-2.01s4.45.64,5.88,1.91c1.43,1.28,2.15,3.03,2.15,5.27s-.72,3.92-2.15,5.23c-1.43,1.31-3.42,1.96-5.97,1.96ZM321.97,131.09v-49.38h13.25v49.38h-13.25Z"/>
        <path class="cls-2" d="M367.8,152.56c-3.86,0-7.7-.56-11.53-1.68-3.83-1.12-6.92-2.61-9.29-4.48l4.67-9.52c1.99,1.37,4.28,2.46,6.86,3.27s5.24,1.21,7.98,1.21c3.3,0,5.99-.5,8.07-1.49,2.08-1,3.64-2.47,4.67-4.43,1.03-1.96,1.54-4.43,1.54-7.42v-8.59l2.24.56c-.37,1.93-1.42,3.75-3.13,5.46s-3.81,3.1-6.3,4.15-5.1,1.59-7.84,1.59c-4.54,0-8.6-1.07-12.18-3.22-3.58-2.15-6.39-5.09-8.45-8.82s-3.08-8.03-3.08-12.88,1.03-9.39,3.08-13.25c2.05-3.86,4.84-6.87,8.35-9.05,3.51-2.18,7.48-3.27,11.9-3.27,1.87,0,3.65.22,5.37.65,1.71.44,3.3,1.04,4.76,1.82,1.46.78,2.78,1.63,3.97,2.57,1.18.93,2.15,1.96,2.89,3.08.75,1.12,1.21,2.24,1.4,3.36l-2.8.84.37-11.29h12.79v45.64c0,3.98-.61,7.54-1.82,10.69-1.21,3.14-2.96,5.79-5.23,7.93-2.27,2.15-5.03,3.78-8.26,4.9-3.24,1.12-6.91,1.68-11.01,1.68ZM368.17,120.45c2.61,0,4.9-.59,6.86-1.77,1.96-1.18,3.48-2.83,4.57-4.95,1.09-2.11,1.63-4.57,1.63-7.37s-.55-5.35-1.63-7.47c-1.09-2.11-2.61-3.78-4.57-4.99-1.96-1.21-4.25-1.82-6.86-1.82s-4.79.61-6.72,1.82c-1.93,1.21-3.44,2.88-4.53,4.99-1.09,2.12-1.63,4.57-1.63,7.37s.54,5.27,1.63,7.42c1.09,2.15,2.6,3.81,4.53,4.99,1.93,1.18,4.17,1.77,6.72,1.77Z"/>
        <path class="cls-2" d="M425.86,132.03c-5.04,0-9.52-1.1-13.44-3.31-3.92-2.21-7.02-5.24-9.29-9.1-2.27-3.86-3.41-8.24-3.41-13.16s1.13-9.41,3.41-13.3c2.27-3.89,5.37-6.94,9.29-9.15,3.92-2.21,8.4-3.31,13.44-3.31s9.52,1.11,13.44,3.31c3.92,2.21,7.01,5.26,9.29,9.15,2.27,3.89,3.41,8.32,3.41,13.3s-1.14,9.3-3.41,13.16c-2.27,3.86-5.37,6.89-9.29,9.1-3.92,2.21-8.4,3.31-13.44,3.31ZM425.86,120.54c2.43,0,4.6-.62,6.53-1.87,1.93-1.24,3.44-2.92,4.53-5.04,1.09-2.11,1.6-4.51,1.54-7.19.06-2.8-.45-5.27-1.54-7.42-1.09-2.15-2.6-3.83-4.53-5.04-1.93-1.21-4.11-1.82-6.53-1.82s-4.62.62-6.58,1.87c-1.96,1.25-3.49,2.93-4.57,5.04-1.09,2.12-1.6,4.57-1.54,7.37-.06,2.68.45,5.07,1.54,7.19,1.09,2.12,2.61,3.8,4.57,5.04,1.96,1.25,4.15,1.87,6.58,1.87Z"/>
        <path class="cls-2" d="M175.61,131.09h-13.04v-16.96c2.17,5.43,13.04,3.92,13.04,3.92v13.04Z"/>
      </g>
    </g>
  </g>
</svg>