<?xml version="1.0" encoding="UTF-8"?>
<svg id="Capa_1" xmlns="http://www.w3.org/2000/svg" viewBox="0 0 80 80">
  <defs>
    <style>
      .cls-1 {
        fill: #fff;
      }

      .cls-2 {
        stroke-linecap: round;
        stroke-linejoin: round;
        stroke-width: 1.15px;
      }

      .cls-2, .cls-3 {
        fill: none;
        stroke: #fff;
      }

      .cls-3 {
        stroke-miterlimit: 10;
        stroke-width: .88px;
      }
    </style>
  </defs>
  <g>
    <rect class="cls-2" x="52.55" y="12.3" width="14.26" height="7.24"/>
    <polygon class="cls-2" points="29.06 70.51 51.02 70.51 56.95 70.51 56.95 72.78 22.97 72.78 22.97 70.51 29.06 70.51"/>
    <polygon class="cls-2" points="47.08 58.29 49.86 68.97 30.04 68.97 32.92 58.29 47.08 58.29"/>
    <path class="cls-2" d="M9.43,50.41h30.57v1c-.63,0-1.17.19-1.52.64-.45.36-.72.9-.72,1.54,0,.54.28,1.08.63,1.45l.1.09c.35.36.89.63,1.52.63v1H10.06c-.81,0-1.62-.36-2.15-.9v-.1c-.54-.45-.81-1.26-.81-2.08v-4.04c.65.49,1.46.78,2.33.78Z"/>
    <path class="cls-2" d="M40,50.41h30.48c.9,0,1.75-.32,2.42-.86v4.12c0,.9-.36,1.64-.89,2.18-.54.54-1.26.9-2.15.9h-29.85v-1c.54,0,1.08-.27,1.52-.63.35-.46.63-1,.63-1.54,0-.64-.28-1.18-.63-1.54-.45-.45-.98-.64-1.52-.64v-1Z"/>
    <path class="cls-2" d="M66.81,19.54v-7.24h-14.26v7.24h14.26ZM72.9,46.43c0,.63-.28,1.27-.72,1.72-.45.45-1.07.72-1.69.72H9.43c-.63,0-1.26-.28-1.7-.72-.36-.46-.63-1.09-.63-1.72V10.22c0-.91.27-1.64.81-2.18.53-.54,1.34-.9,2.15-.9h59.8c.9,0,1.61.36,2.15.9.53.54.89,1.27.89,2.18v36.21Z"/>
    <path class="cls-3" d="M74.43,46.43c0,1.08-.45,2.08-1.17,2.81-.11.11-.23.22-.35.31v-3.12c0-.46.27-.82.71-.82s.81.36.81.82Z"/>
    <path class="cls-1" d="M72.9,10.22c0-.91-.36-1.64-.89-2.18-.54-.54-1.26-.9-2.15-.9h-10.04c.45,0,.81-.28.81-.73s-.36-.82-.81-.82h10.04c1.25,0,2.42.55,3.22,1.37.82.81,1.35,1.99,1.35,3.26v36.21c0-.46-.36-.82-.81-.82s-.71.36-.71.82V10.22Z"/>
    <path class="cls-1" d="M72.01,55.85c.53-.54.89-1.27.89-2.18v-4.12c.12-.09.24-.2.35-.31.72-.72,1.17-1.72,1.17-2.81v7.24c0,1.27-.53,2.44-1.35,3.26-.8.82-1.97,1.36-3.22,1.36h-21.28l-.24-.9c0-.36-.36-.64-.72-.64h22.24c.9,0,1.61-.36,2.15-.9Z"/>
    <path class="cls-3" d="M58.19,7.14c-.35,0-.71-.28-.71-.73s.36-.82.71-.82h1.62c.45,0,.81.37.81.82s-.36.73-.81.73h-1.62Z"/>
    <polygon class="cls-1" points="48.58 58.29 51.4 68.97 49.86 68.97 47.08 58.29 48.58 58.29"/>
    <path class="cls-3" d="M38.38,55.03c-.35-.36-.63-.9-.63-1.45,0-.64.28-1.18.72-1.54.35-.45.89-.64,1.52-.64.54,0,1.08.19,1.52.64.35.36.63.9.63,1.54,0,.54-.28,1.08-.63,1.54-.45.36-.98.63-1.52.63-.63,0-1.17-.27-1.52-.63l-.1-.09ZM40,54.21c.18,0,.27-.09.45-.18.1-.18.18-.27.18-.45s-.08-.37-.18-.46c-.18-.18-.27-.27-.45-.27s-.36.09-.54.27c-.09.09-.18.28-.18.46s.09.27.18.36v.09c.18.09.36.18.54.18Z"/>
    <path class="cls-1" d="M31.57,57.3c.09-.37.35-.55.71-.55h15.33c.36,0,.72.28.72.64l.24.9h-17.26l.26-.99Z"/>
    <polygon class="cls-1" points="30.04 68.97 28.49 68.97 31.32 58.29 32.92 58.29 30.04 68.97"/>
    <path class="cls-1" d="M28.49,68.97h22.9l.17.64c.09.36-.18.82-.54.9h-21.96c-.35,0-.72-.36-.72-.72v-.27l.15-.54Z"/>
    <path class="cls-1" d="M51.4,68.97h7.16v5.44H21.35v-5.44h7.14l-.15.54v.27c0,.36.36.72.72.72h-6.09v2.26h33.98v-2.26h-5.92c.36-.09.63-.54.54-.9l-.17-.64Z"/>
    <path class="cls-1" d="M70.48,48.88c.62,0,1.25-.28,1.69-.72.45-.46.72-1.09.72-1.72v3.12c-.67.54-1.52.86-2.42.86H9.43c-.87,0-1.68-.29-2.33-.78v-3.19c0,.63.27,1.27.63,1.72.45.45,1.08.72,1.7.72h61.05Z"/>
    <path class="cls-3" d="M6.65,49.24c-.63-.72-1.08-1.72-1.08-2.81,0-.46.27-.82.71-.82s.81.36.81.82v3.19c-.15-.11-.31-.25-.45-.39Z"/>
    <path class="cls-1" d="M57.48,6.41c0,.46.36.73.71.73H10.06c-.81,0-1.62.36-2.15.9-.54.54-.81,1.27-.81,2.18v36.21c0-.46-.36-.82-.81-.82s-.71.36-.71.82V10.22c0-1.27.45-2.45,1.25-3.26.81-.82,1.98-1.37,3.24-1.37h48.13c-.35,0-.71.37-.71.82Z"/>
    <path class="cls-1" d="M10.06,58.29c-1.26,0-2.43-.54-3.24-1.36v-.09c-.8-.81-1.25-1.89-1.25-3.17v-7.24c0,1.08.45,2.08,1.08,2.81.14.14.29.28.45.39v4.04c0,.82.27,1.64.81,2.08v.1c.53.54,1.34.9,2.15.9h22.23c-.36,0-.63.18-.71.55l-.26.99H10.06Z"/>
  </g>
  <g>
    <line class="cls-2" x1="15.16" y1="23.44" x2="45.28" y2="23.44"/>
    <line class="cls-2" x1="15.16" y1="29.32" x2="34.08" y2="29.32"/>
    <line class="cls-2" x1="41.08" y1="29.32" x2="36.5" y2="29.32"/>
    <line class="cls-2" x1="15.16" y1="34.66" x2="34.08" y2="34.66"/>
    <line class="cls-2" x1="41.08" y1="34.66" x2="36.5" y2="34.66"/>
    <polyline class="cls-2" points="43.94 38.46 46.72 41.17 43.94 43.81"/>
    <line class="cls-2" x1="15.16" y1="41.17" x2="34.08" y2="41.17"/>
    <line class="cls-2" x1="41.08" y1="41.17" x2="36.5" y2="41.17"/>
    <line class="cls-2" x1="61.78" y1="27.06" x2="61.78" y2="44.26"/>
    <line class="cls-2" x1="66.81" y1="27.06" x2="66.81" y2="44.26"/>
    <rect class="cls-2" x="52.55" y="12.3" width="14.26" height="7.24"/>
  </g>
</svg>