<?xml version="1.0" encoding="UTF-8"?>
<svg id="Capa_1" xmlns="http://www.w3.org/2000/svg" viewBox="0 0 80 80">
  <defs>
    <style>
      .cls-1 {
        fill: #fff;
      }
    </style>
  </defs>
  <path class="cls-1" d="M56.18,29.86H10.17c-.58,0-1.01-.44-1.01-1.02V5.04c0-1.27.95-2.26,2.16-2.26h43.31c1.21,0,2.16.99,2.16,2.26v24.21c0,.34-.27.61-.61.61ZM10.38,28.63h45.18V5.04c0-.59-.4-1.03-.94-1.03H11.32c-.53,0-.94.44-.94,1.03v23.6Z"/>
  <path class="cls-1" d="M56.34,36.75H9.6c-2.22,0-4.02-1.82-4.02-4.06v-3.45c0-.34.27-.61.61-.61h53.56c.34,0,.61.27.61.61v3.45c0,2.24-1.81,4.06-4.03,4.06ZM6.8,29.86v2.84c0,1.54,1.28,2.84,2.8,2.84h46.74c1.52,0,2.8-1.3,2.8-2.84v-2.84H6.8Z"/>
  <path class="cls-1" d="M52.36,29.86H13.59c-.34,0-.61-.27-.61-.61V7.41c0-.34.27-.61.61-.61h38.77c.34,0,.61.27.61.61v21.83c0,.34-.27.61-.61.61ZM14.2,28.63h37.54V8.03H14.2v20.61Z"/>
  <path class="cls-1" d="M38.3,33.55h-10.65c-.34,0-.61-.27-.61-.61v-3.69c0-.34.27-.61.61-.61h10.65c.34,0,.61.27.61.61v3.69c0,.34-.27.61-.61.61ZM28.26,32.33h9.42v-2.47h-9.42v2.47Z"/>
  <path class="cls-1" d="M60.48,70.57c-.34,0-.61-.27-.61-.61v-2.62c0-.34.27-.61.61-.61s.61.27.61.61v2.62c0,.34-.27.61-.61.61ZM60.48,61.3c-.34,0-.61-.27-.61-.61v-2.55c0-.34.27-.61.61-.61s.61.27.61.61v2.55c0,.34-.27.61-.61.61ZM60.48,52.02c-.34,0-.61-.27-.61-.61v-5.88h-27.43c-.34,0-.61-.27-.61-.61v-8.78c0-.34.27-.61.61-.61s.61.27.61.61v8.17h27.43c.34,0,.61.27.61.61v6.49c0,.34-.27.61-.61.61Z"/>
  <path class="cls-1" d="M70.96,73.94h-7.23c-.34,0-.61-.27-.61-.61s.27-.61.61-.61h7.23c.34,0,.61.27.61.61s-.27.61-.61.61ZM57.23,73.94h-7.23c-.34,0-.61-.27-.61-.61s.27-.61.61-.61h7.23c.34,0,.61.27.61.61s-.27.61-.61.61Z"/>
  <path class="cls-1" d="M60.48,77.22c-2.13,0-3.86-1.75-3.86-3.9s1.73-3.98,3.86-3.98,3.86,1.78,3.86,3.98-1.73,3.9-3.86,3.9ZM60.48,70.57c-1.46,0-2.64,1.23-2.64,2.75s1.18,2.67,2.64,2.67,2.64-1.2,2.64-2.67-1.18-2.75-2.64-2.75Z"/>
  <path class="cls-1" d="M73.08,58.75h-25.2c-.74,0-1.34-.61-1.34-1.35v-5.26c0-.74.6-1.34,1.34-1.34h25.2c.74,0,1.34.6,1.34,1.34v5.26c0,.74-.6,1.35-1.34,1.35ZM47.89,52.02c-.07,0-.12.05-.12.12v5.26c0,.07.05.12.12.12h25.2c.06,0,.11-.06.11-.12v-5.26c0-.07-.05-.12-.11-.12h-25.2Z"/>
  <path class="cls-1" d="M73.08,67.95h-25.2c-.74,0-1.34-.61-1.34-1.36v-5.25c0-.69.62-1.27,1.34-1.27h25.2c.72,0,1.34.58,1.34,1.27v5.25c0,.75-.6,1.36-1.34,1.36ZM47.89,61.3c-.07,0-.11.05-.12.07v5.23c0,.07.06.14.12.14h25.2c.06,0,.11-.06.11-.14v-5.25s-.05-.05-.11-.05h-25.2Z"/>
  <path class="cls-1" d="M51.22,55.39h-.98c-.34,0-.61-.27-.61-.61s.27-.61.61-.61h.98c.34,0,.61.27.61.61s-.27.61-.61.61Z"/>
  <path class="cls-1" d="M52.92,55.39h-.97c-.34,0-.61-.27-.61-.61s.27-.61.61-.61h.97c.34,0,.61.27.61.61s-.27.61-.61.61Z"/>
  <path class="cls-1" d="M54.55,55.39h-.98c-.34,0-.61-.27-.61-.61s.27-.61.61-.61h.98c.34,0,.61.27.61.61s-.27.61-.61.61Z"/>
  <path class="cls-1" d="M51.22,64.58h-.98c-.34,0-.61-.27-.61-.61s.27-.61.61-.61h.98c.34,0,.61.27.61.61s-.27.61-.61.61Z"/>
  <path class="cls-1" d="M52.92,64.58h-.97c-.34,0-.61-.27-.61-.61s.27-.61.61-.61h.97c.34,0,.61.27.61.61s-.27.61-.61.61Z"/>
  <path class="cls-1" d="M54.55,64.58h-.98c-.34,0-.61-.27-.61-.61s.27-.61.61-.61h.98c.34,0,.61.27.61.61s-.27.61-.61.61Z"/>
  <path class="cls-1" d="M18.46,72.7c-5.3,0-10.93-1.6-10.93-4.55,0-.61.29-1.51,1.66-2.4.21-.13.47-.13.67,0,1.68,1.13,5.06,1.87,8.6,1.87s6.82-.72,8.61-1.87c.2-.13.46-.13.66,0,1.37.88,1.66,1.79,1.66,2.4,0,2.96-5.63,4.55-10.93,4.55ZM9.54,67c-.51.39-.79.79-.79,1.15,0,1.57,3.99,3.33,9.71,3.33s9.71-1.75,9.71-3.33c0-.36-.28-.77-.79-1.16-2.03,1.15-5.39,1.85-8.92,1.85s-6.95-.7-8.92-1.85Z"/>
  <path class="cls-1" d="M18.46,68.85c-5.3,0-10.93-1.57-10.93-4.47,0-.94.56-1.77,1.66-2.48.21-.14.49-.13.69.02,1.58,1.14,4.87,1.85,8.58,1.85s6.9-.7,8.59-1.86c.2-.14.47-.14.68-.01,1.1.71,1.66,1.55,1.66,2.48,0,2.9-5.63,4.47-10.93,4.47ZM9.54,63.15c-.52.4-.78.81-.78,1.23,0,1.53,4.15,3.25,9.71,3.25s9.71-1.71,9.71-3.25c0-.42-.26-.83-.78-1.24-1.95,1.16-5.24,1.85-8.93,1.85s-7.04-.68-8.93-1.84Z"/>
  <path class="cls-1" d="M18.46,64.99c-5.3,0-10.93-1.57-10.93-4.47,0-.93.57-1.79,1.59-2.41.2-.12.45-.12.65,0,1.8,1.16,5.13,1.87,8.69,1.87s6.91-.73,8.6-1.87c.19-.13.43-.14.63-.03,1.09.6,1.7,1.46,1.7,2.42,0,2.9-5.63,4.47-10.93,4.47ZM9.46,59.36c-.34.26-.71.66-.71,1.16,0,1.53,4.15,3.25,9.71,3.25s9.71-1.72,9.71-3.25c0-.51-.37-.9-.76-1.17-1.97,1.16-5.34,1.86-8.95,1.86s-6.95-.69-9-1.86Z"/>
  <path class="cls-1" d="M18.46,61.21c-5.3,0-10.93-1.6-10.93-4.55s5.63-4.47,10.93-4.47,10.93,1.57,10.93,4.47-5.63,4.55-10.93,4.55ZM18.46,53.42c-5.56,0-9.71,1.71-9.71,3.24s3.99,3.33,9.71,3.33,9.71-1.75,9.71-3.33-4.15-3.24-9.71-3.24Z"/>
  <rect class="cls-1" x="14.48" y="56.01" width="1.38" height="1.39"/>
  <rect class="cls-1" x="17.25" y="56.01" width="1.3" height="1.39"/>
  <rect class="cls-1" x="19.93" y="56.01" width="1.38" height="1.39"/>
  <path class="cls-1" d="M18.46,53.5c-.34,0-.61-.27-.61-.61v-11c0-.34.27-.61.61-.61h9.55v-5.14c0-.34.27-.61.61-.61s.61.27.61.61v5.75c0,.34-.27.61-.61.61h-9.55v10.39c0,.34-.27.61-.61.61Z"/>
  <path class="cls-1" d="M34.48,12.37h-15.2c-.34,0-.61-.27-.61-.61s.27-.61.61-.61h15.2c.34,0,.61.27.61.61s-.27.61-.61.61Z"/>
  <path class="cls-1" d="M41.63,12.37h-4.47c-.34,0-.61-.27-.61-.61s.27-.61.61-.61h4.47c.34,0,.61.27.61.61s-.27.61-.61.61Z"/>
  <path class="cls-1" d="M34.48,15.66h-15.2c-.34,0-.61-.27-.61-.61s.27-.61.61-.61h15.2c.34,0,.61.27.61.61s-.27.61-.61.61Z"/>
  <path class="cls-1" d="M41.63,15.66h-4.47c-.34,0-.61-.27-.61-.61s.27-.61.61-.61h4.47c.34,0,.61.27.61.61s-.27.61-.61.61Z"/>
  <path class="cls-1" d="M34.48,18.94h-15.2c-.34,0-.61-.27-.61-.61s.27-.61.61-.61h15.2c.34,0,.61.27.61.61s-.27.61-.61.61Z"/>
  <path class="cls-1" d="M41.63,18.94h-4.47c-.34,0-.61-.27-.61-.61s.27-.61.61-.61h4.47c.34,0,.61.27.61.61s-.27.61-.61.61Z"/>
  <path class="cls-1" d="M34.48,22.3h-15.2c-.34,0-.61-.27-.61-.61s.27-.61.61-.61h15.2c.34,0,.61.27.61.61s-.27.61-.61.61Z"/>
  <path class="cls-1" d="M41.63,22.3h-4.47c-.34,0-.61-.27-.61-.61s.27-.61.61-.61h4.47c.34,0,.61.27.61.61s-.27.61-.61.61Z"/>
</svg>